HIERARCHY
ROOT pelvis
{
	OFFSET 64.29973 -93.65147 84.52716
	CHANNELS 6 Xposition Yposition Zposition Zrotation Xrotation Yrotation
	JOINT left_hip
	{
		OFFSET 6.88355 -8.80780 -1.11156
		CHANNELS 3 Zrotation Xrotation Yrotation
		JOINT left_knee
		{
			OFFSET 3.46973 -37.70341 -0.28410
			CHANNELS 3 Zrotation Xrotation Yrotation
			JOINT left_ankle
			{
				OFFSET -1.13442 -39.15425 -4.26295
				CHANNELS 3 Zrotation Xrotation Yrotation
				End site
				{
					OFFSET 2.43614 -5.51931 11.44868
				}
			}
		}
	}
	JOINT right_hip
	{
		OFFSET -6.65705 -8.71512 -0.84964
		CHANNELS 3 Zrotation Xrotation Yrotation
		JOINT right_knee
		{
			OFFSET -3.93923 -38.28965 -0.60475
			CHANNELS 3 Zrotation Xrotation Yrotation
			JOINT right_ankle
			{
				OFFSET 1.41980 -39.10810 -4.10992
				CHANNELS 3 Zrotation Xrotation Yrotation
				End site
				{
					OFFSET -2.15328 -4.69517 11.80419
				}
			}
		}
	}
	JOINT spine1
	{
		OFFSET -0.25599 10.12922 -1.80284
		CHANNELS 3 Zrotation Xrotation Yrotation
		JOINT spine2
		{
			OFFSET 0.36284 13.04887 0.04183
			CHANNELS 3 Zrotation Xrotation Yrotation
			JOINT spine3
			{
				OFFSET 0.20037 4.87758 2.50506
				CHANNELS 3 Zrotation Xrotation Yrotation
				JOINT neck
				{
					OFFSET -0.20116 20.23394 -4.16057
					CHANNELS 3 Zrotation Xrotation Yrotation
					End site
					{
						OFFSET 0.49005 6.45552 5.10174
					}
				}
				JOINT left_collar
				{
					OFFSET 7.22201 11.35464 -3.26184
					CHANNELS 3 Zrotation Xrotation Yrotation
					JOINT left_shoulder
					{
						OFFSET 8.25687 3.29324 -0.58638
						CHANNELS 3 Zrotation Xrotation Yrotation
						JOINT left_elbow
						{
							OFFSET 25.15557 -1.45107 -2.70932
							CHANNELS 3 Zrotation Xrotation Yrotation
							JOINT left_wrist
							{
								OFFSET 24.01132 0.95271 -0.05525
								CHANNELS 3 Zrotation Xrotation Yrotation
								JOINT left_index1
								{
									OFFSET 9.61715 -0.96926 2.06107
									CHANNELS 3 Zrotation Xrotation Yrotation
									JOINT left_index2
									{
										OFFSET 3.03288 0.37957 0.27925
										CHANNELS 3 Zrotation Xrotation Yrotation
										End site
										{
											OFFSET 2.13839 -0.08805 0.05017
										}
									}
								}
								JOINT left_middle1
								{
									OFFSET 10.28530 -0.70896 -0.07796
									CHANNELS 3 Zrotation Xrotation Yrotation
									JOINT left_middle2
									{
										OFFSET 2.89318 0.18147 -0.42916
										CHANNELS 3 Zrotation Xrotation Yrotation
										End site
										{
											OFFSET 2.24408 -0.07859 -0.35786
										}
									}
								}
								JOINT left_pinky1
								{
									OFFSET 7.86600 -1.52795 -3.70207
									CHANNELS 3 Zrotation Xrotation Yrotation
									JOINT left_pinky2
									{
										OFFSET 1.44604 -0.05197 -1.04482
										CHANNELS 3 Zrotation Xrotation Yrotation
										End site
										{
											OFFSET 1.47467 -0.10445 -0.99795
										}
									}
								}
								JOINT left_ring1
								{
									OFFSET 9.13411 -1.00802 -2.21761
									CHANNELS 3 Zrotation Xrotation Yrotation
									JOINT left_ring2
									{
										OFFSET 2.61063 0.20958 -0.48516
										CHANNELS 3 Zrotation Xrotation Yrotation
										End site
										{
											OFFSET 2.13653 -0.08335 -0.67113
										}
									}
								}
								JOINT left_thumb1
								{
									OFFSET 3.90324 -1.95171 2.42973
									CHANNELS 3 Zrotation Xrotation Yrotation
									JOINT left_thumb2
									{
										OFFSET 1.68874 0.05734 2.24660
										CHANNELS 3 Zrotation Xrotation Yrotation
										End site
										{
											OFFSET 2.00837 -0.43621 1.39133
										}
									}
								}
							}
						}
					}
				}
				JOINT right_collar
				{
					OFFSET -7.40288 11.08050 -3.83215
					CHANNELS 3 Zrotation Xrotation Yrotation
					JOINT right_shoulder
					{
						OFFSET -8.67869 3.40042 -0.89468
						CHANNELS 3 Zrotation Xrotation Yrotation
						JOINT right_elbow
						{
							OFFSET -24.63432 -1.52370 -2.01226
							CHANNELS 3 Zrotation Xrotation Yrotation
							JOINT right_wrist
							{
								OFFSET -24.75167 0.77760 -0.44823
								CHANNELS 3 Zrotation Xrotation Yrotation
								JOINT right_index1
								{
									OFFSET -9.32253 -0.91806 2.21640
									CHANNELS 3 Zrotation Xrotation Yrotation
									JOINT right_index2
									{
										OFFSET -3.04560 0.29950 0.22042
										CHANNELS 3 Zrotation Xrotation Yrotation
										End site
										{
											OFFSET -2.11039 -0.13857 -0.02753
										}
									}
								}
								JOINT right_middle1
								{
									OFFSET -10.02932 -0.65411 -0.00121
									CHANNELS 3 Zrotation Xrotation Yrotation
									JOINT right_middle2
									{
										OFFSET -2.86958 0.14021 -0.42172
										CHANNELS 3 Zrotation Xrotation Yrotation
										End site
										{
											OFFSET -2.19525 -0.11060 -0.39414
										}
									}
								}
								JOINT right_pinky1
								{
									OFFSET -7.71351 -1.42107 -3.69706
									CHANNELS 3 Zrotation Xrotation Yrotation
									JOINT right_pinky2
									{
										OFFSET -1.44526 -0.01259 -1.06939
										CHANNELS 3 Zrotation Xrotation Yrotation
										End site
										{
											OFFSET -1.47062 -0.06391 -0.97723
										}
									}
								}
								JOINT right_ring1
								{
									OFFSET -8.92935 -0.93914 -2.18005
									CHANNELS 3 Zrotation Xrotation Yrotation
									JOINT right_ring2
									{
										OFFSET -2.59239 0.14694 -0.44435
										CHANNELS 3 Zrotation Xrotation Yrotation
										End site
										{
											OFFSET -2.11348 -0.10768 -0.67619
										}
									}
								}
								JOINT right_thumb1
								{
									OFFSET -3.54472 -1.91140 2.72098
									CHANNELS 3 Zrotation Xrotation Yrotation
									JOINT right_thumb2
									{
										OFFSET -1.69444 0.05339 2.21439
										CHANNELS 3 Zrotation Xrotation Yrotation
										End site
										{
											OFFSET -2.05200 -0.50035 1.27763
										}
									}
								}
							}
						}
					}
				}
			}
		}
	}
}
MOTION
Frames: 4
Frame Time: 0.008333
-16.49006679549315 18.601190313975184 82.1604739444086 -137.6334665298905 86.20090801444385 1.7465110370120522 0.10080162631590237 14.088690640748515 6.508143862109002 0.15262483776289673 20.632890531685355 -13.00010253490846 -5.262449766594661 -10.17687675005468 4.701220448067539 2.9820296158066064 -24.084269921566776 2.881268125652418 -1.9278569808968065 15.600812210009432 -7.6231791972484695 3.50814512520689 3.648076459041572 -14.557110245286802 2.50590317928861 10.816179676566492 -8.133495561827765 -2.8433565305759227 0.7169287666175643 -1.3781601375283725 -0.5167856776732577 -5.019121297626489 -3.995708725134948 -3.120719576856976 -1.9060581802040135 -6.223419871183471 -31.6354815411822 9.818765963827126 -4.628806620598357 -47.315026304537994 3.0830914587609377 -3.0923954479565126 15.142562835000744 -5.471898203259722 -37.58589106126826 0.49426020548983146 0.062497561376015025 -9.857739216273382 -24.915750894248028 10.108855452657366 11.063093752302416 -78.11832435556852 5.82274539625033 -3.046600381390011 -54.04471316126316 -15.55763766197408 0.3602188822894562 -87.4007983487803 -15.92689631631931 -5.405697008071156 -60.27419706909747 -19.252120306558307 -39.479269625169216 -67.09299903056119 -25.661367850829667 -23.45354561554055 -56.210313099970286 -2.58562299675544 -12.452435748410087 -76.82766150737058 -21.41789643430293 -20.591353079370766 -106.65526069523237 56.318311196802846 121.01069631318109 32.55989149200717 -50.47782492879358 30.156660271666322 23.90176223496094 8.01316535476368 9.365981042989384 53.42364094783782 10.94172532686943 1.5073759206384572 -3.3789920513098557 5.531475181523077 20.125049119734765 -2.48611139592167 6.404078279046018 5.853607398165428 8.520874491229698 6.737746473153748 -16.813747024886368 87.16132081105857 3.37165922123006 4.720968571783502 37.5948328819885 -12.22987996883569 -3.833609884370543 106.96251635755276 -12.874885065103808 11.587263748336511 46.244108951078886 -12.951494858564287 41.637928937003934 84.4593416577958 -27.820186402883227 39.70839220730257 29.50718850866977 -2.7712769493012632 15.346542718981768 110.56653805300925 -15.296208820093693 27.07285622295779 40.604167676414626 66.64115827305127 -59.99047405283031 -7.157074728464723 -56.19899632811082 -18.51031855306447
-16.923313451937805 19.348230589554046 82.26950584810652 -139.9591430674053 86.36734915706195 4.1226953511270725 0.40415988849131707 13.577429859461809 6.372332684155551 0.1478911618013533 22.006999147872047 -12.662922650129833 -5.917315691503917 -8.7172099452079 4.746891771083811 3.2263484967538285 -23.89616435003036 3.133707937413975 -1.634846727793989 16.10131262258932 -7.746515754136931 3.1205759967494955 3.688443290719848 -14.589475548468787 2.581929895697567 10.528135540813617 -8.118792210430495 -2.7036600573330896 0.7210947049443542 -1.423433866978597 -0.5234186189215873 -5.122351931943686 -3.9950174833879237 -3.113317749903571 -1.982759018604334 -6.13167651108543 -31.658504610629812 9.944505460554184 -4.559062671779816 -47.64049823991771 2.9972222245780746 -2.824770165368624 15.282242158768303 -5.56424430382714 -36.6601444495686 0.07154786873531208 0.08738536690722107 -9.82523137495966 -25.4038743364864 10.081424273036845 11.10460306912534 -78.32862860540558 6.058556442608147 -2.935699813831056 -54.359587163273495 -15.557461260504613 0.22498041008345257 -86.72312024477102 -15.823966399973926 -5.263325868679299 -60.910428164925186 -19.614136298918652 -39.859686218984415 -66.80417955842782 -25.323859760680662 -22.984498623684402 -56.37524836179684 -2.681313450108396 -12.623111312191812 -76.98375744984078 -21.381375581567234 -20.661826606965942 -107.1286814334756 55.971213983433735 121.59094554159347 32.667668091254995 -50.708030701444464 30.051175580563953 23.928787537428068 8.113880689030866 9.301610072369972 53.31160426488443 10.92090573848472 1.507309854662144 -3.3485630567888167 5.980895519271618 19.782900959088384 -2.184663536581159 6.147624616959309 5.641492404687215 8.488573151503571 6.750724278711498 -16.79105711662367 87.07261460821063 3.339476046152454 4.7447976074711065 37.57148508240008 -12.165683028106903 -3.8856499692575093 106.80743487953565 -12.92368597597743 11.595505518422884 46.198060651091005 -12.901560142575486 41.573960583723476 84.44693092295519 -27.860560450455953 39.72044499196116 29.593404509131073 -2.7326153387250964 15.314558471849253 110.42209194226795 -15.326843050862818 27.06992857875217 40.177772259753496 66.57155994371863 -59.69537916420906 -7.318260532450495 -56.13879680478566 -18.66790294678885
-17.347171799286855 20.105685757848473 82.39370796016435 -143.56238976349223 86.53771890819813 7.718689617619761 0.7542826860806965 13.022381657166417 6.2000409810223225 0.19850046574183822 23.40006185568654 -12.12764582384886 -6.578779836884829 -7.2385463274048325 4.712523604604452 3.550321021702329 -23.50475841228019 3.417869115350614 -1.3829338412107963 16.305734682193286 -7.917753609992487 2.4631954038766164 3.5190266116700792 -14.486195177873494 2.6092424799930494 10.198092237498418 -8.019374090124861 -2.566243330141344 0.7523789493799928 -1.4259433201648644 -0.5485673682286157 -5.234419365111085 -3.936414736543416 -3.085635921919171 -1.939623863089966 -6.0769316980074874 -31.535814454319144 10.023596236498141 -4.489203863109775 -47.98726724370588 2.9804659859897615 -2.6258640937304336 15.349974113785194 -5.530081051174084 -35.75543502364575 -0.28576703600063463 0.13008545686194523 -9.76603887435383 -24.792119480588216 10.112525915837633 11.172721111160044 -78.75852283010889 6.0116812064878316 -3.0418867687448157 -54.19121577023242 -15.548249033506606 0.1627901523324163 -87.18744199205847 -15.70044423953685 -5.290870927565677 -60.89728736313682 -19.88636326296748 -39.755724744328404 -66.99465156118262 -24.990617300231786 -22.91580376053952 -55.83142566141466 -2.8158218004366273 -12.636908677239138 -77.38637034729975 -21.2845300784095 -20.548263782962128 -106.66598447976375 56.21402808429616 121.25256513943854 32.34636580976347 -50.88896401143597 30.06651386339927 23.902698123978958 8.104979658774015 9.128519910003373 53.2989430104604 10.914013568947594 1.5261752599615648 -3.253533395018634 6.3321909897507265 19.38664766476093 -2.0257628423303786 6.060711732542165 5.453077766858853 8.427165353959449 6.76277262328949 -16.839145528250285 86.91906130076478 3.286935690473401 4.797254967309565 37.415006023625324 -12.047905632857915 -3.9923219006993698 106.7368388405695 -12.965026190533427 11.634737466685808 46.10580019259375 -12.790951350756748 41.491515702525625 84.45998212698234 -27.917259670852488 39.76259274859193 29.59091061206256 -2.704627373303571 15.250453619186775 110.379549143626 -15.337123920941247 27.061446760257923 39.32955673306307 66.45696620070504 -58.989755809368894 -7.415740692426241 -56.06486318798696 -18.829018082777534
-17.777884726468226 20.87928342530659 82.51041981018861 -147.76881112556148 86.73989947584464 11.87296811222346 1.0842559767882287 12.372733670190133 6.073128713986112 0.13632653922039442 24.92621901378759 -11.58980195016096 -7.308016225712918 -5.472006426657018 4.670420318763329 3.9824862571883686 -23.166962723159493 3.6784396626831075 -1.115915608368547 16.50395086224238 -8.041936109911756 1.7025193231081301 3.1535793343033562 -14.421283851341746 2.682617745074987 9.776403963846846 -7.963871889012617 -2.38812471431896 0.8106354510893607 -1.4258221704718852 -0.5480226515451065 -5.297430450796851 -3.8619485888523792 -3.081824390889761 -1.8183955835089163 -6.063568461524479 -31.475641936240713 10.000334446106443 -4.262397777810451 -48.324768589223574 2.976558174422836 -2.3732636109554526 15.470668022533161 -5.236428361530397 -34.98032522979538 -0.5534342600107597 0.3011925654224342 -9.604638666753322 -23.682995858611257 10.327861565710435 11.287822263725028 -79.25734945062885 5.9751138451046995 -3.383559279238396 -53.1021495376327 -15.32537819229497 0.34631567280857073 -88.28107413145673 -15.389824877093398 -5.486092786877072 -60.36686648462375 -20.586492215952706 -39.39693518850136 -67.67700856024278 -24.34648749437289 -22.813012876240684 -54.327901442350274 -3.158273415224897 -12.50954430864786 -78.20872611495051 -21.058474847894768 -20.421418640353348 -106.15097757615492 56.45891302366312 120.98601211296487 31.97819437583292 -51.36630878885656 30.20281328248909 23.814801955834028 8.099711086907366 8.965785895601046 53.34054629819867 10.861921772593142 1.5544864466816113 -3.1818892111363333 6.8463658669417375 19.07133976999637 -1.9756572843197386 5.856307177003435 5.3970816528487 8.413636318305064 6.775468076653433 -16.859401735983884 86.8749079741095 3.2678292064989027 4.812805841624719 37.41270396858665 -12.028208863925853 -4.047712999003359 106.7388308931897 -12.977663613634009 11.651180844646394 46.1297873241369 -12.810086055216466 41.47110429344571 84.36533014419213 -27.924973294726623 39.68063162744807 29.610000497094834 -2.6848822156579453 15.22596429496407 110.40960687648182 -15.326939119308557 27.080180724544753 39.19985969648764 66.4463887641029 -58.92022470345243 -7.549509089861923 -56.031656972899064 -19.01305293611431
